<svg width="200" height="200" viewBox="0 0 200 200" fill="none" xmlns="http://www.w3.org/2000/svg">
<path d="M153.164 100C152.852 100 152.578 99.9609 152.266 99.9219C151.953 99.8828 151.68 99.8047 151.406 99.7266C151.133 99.6484 150.859 99.5312 150.586 99.4141C150.312 99.2969 150.078 99.1406 149.805 98.9844C149.57 98.8281 149.336 98.6328 149.102 98.4375C148.867 98.2422 148.672 98.0078 148.516 97.7734C148.32 97.5391 148.164 97.3047 148.008 97.0312C147.852 96.7578 147.734 96.5234 147.617 96.25L139.18 74.5312C139.023 74.1406 138.789 73.7891 138.516 73.5156C138.203 73.2031 137.891 73.0078 137.5 72.8516L115.586 64.4922C115.312 64.375 115.039 64.2578 114.766 64.1016C114.492 63.9453 114.258 63.7891 114.023 63.5937C113.789 63.3984 113.555 63.2031 113.359 63.0078C113.164 62.8125 112.969 62.5781 112.812 62.3047C112.656 62.0703 112.5 61.7969 112.383 61.5625C112.266 61.2891 112.148 61.0156 112.07 60.7422C111.992 60.4687 111.914 60.1953 111.875 59.8828C111.836 59.6094 111.797 59.2969 111.797 59.0234C111.797 58.7109 111.836 58.4375 111.875 58.1641C111.914 57.8906 111.992 57.5781 112.07 57.3047C112.148 57.0312 112.266 56.7578 112.383 56.4844C112.5 56.2109 112.656 55.9766 112.812 55.7422C112.969 55.5078 113.164 55.2734 113.359 55.0391C113.555 54.8437 113.789 54.6094 114.023 54.4531C114.258 54.2578 114.492 54.1016 114.766 53.9453C115.039 53.7891 115.273 53.6719 115.586 53.5547L137.5 45.1953C137.891 45.0391 138.242 44.8437 138.516 44.5312C138.828 44.2187 139.023 43.9062 139.18 43.5156L147.539 21.9531C147.734 21.4453 147.969 20.9766 148.32 20.5078C148.633 20.0781 149.023 19.6875 149.453 19.3359C149.883 18.9844 150.352 18.7109 150.859 18.5156C151.367 18.2812 151.875 18.1641 152.422 18.0859C152.734 18.0469 153.086 18.0469 153.398 18.0469C153.711 18.0469 154.063 18.0859 154.375 18.1641C154.688 18.2422 155 18.3203 155.312 18.4375C155.625 18.5547 155.898 18.7109 156.172 18.8672C156.445 19.0234 156.719 19.2188 156.953 19.4141C157.187 19.6094 157.422 19.8437 157.656 20.1172C157.852 20.3516 158.047 20.625 158.203 20.8984C158.359 21.1719 158.516 21.4844 158.633 21.7578L167.07 43.4766C167.227 43.8672 167.461 44.2187 167.734 44.4922C168.047 44.8047 168.359 45 168.75 45.1562L190.664 53.5156C190.937 53.6328 191.211 53.75 191.484 53.9062C191.758 54.0625 191.992 54.2187 192.227 54.4141C192.461 54.6094 192.695 54.8047 192.891 55C193.086 55.1953 193.281 55.4297 193.438 55.7031C193.594 55.9375 193.75 56.2109 193.867 56.4453C193.984 56.7187 194.102 56.9922 194.18 57.2656C194.258 57.5391 194.336 57.8125 194.375 58.125C194.414 58.3984 194.453 58.7109 194.453 58.9844C194.453 59.2969 194.414 59.5703 194.375 59.8437C194.336 60.1172 194.258 60.4297 194.18 60.7031C194.102 60.9766 193.984 61.25 193.867 61.5234C193.75 61.7969 193.594 62.0312 193.438 62.2656C193.281 62.5 193.086 62.7344 192.891 62.9687C192.695 63.1641 192.461 63.3984 192.227 63.5547C191.992 63.75 191.758 63.9062 191.484 64.0625C191.211 64.2187 190.977 64.3359 190.664 64.4531L168.75 72.8125C168.359 72.9687 168.008 73.1641 167.734 73.4766C167.422 73.7891 167.227 74.1016 167.07 74.4922L158.633 96.2109C158.516 96.4844 158.398 96.7578 158.242 96.9922C158.086 97.2656 157.93 97.5 157.734 97.7344C157.539 97.9687 157.344 98.1641 157.148 98.3984C156.914 98.5937 156.719 98.7891 156.445 98.9453C156.211 99.1016 155.937 99.2578 155.664 99.375C155.391 99.4922 155.117 99.6094 154.844 99.6875C154.57 99.7656 154.258 99.8437 153.984 99.8828C153.75 99.9609 153.437 100 153.164 100ZM37.9687 70.7422C37.6953 70.7422 37.4219 70.7031 37.1484 70.6641C36.875 70.625 36.6016 70.5469 36.3672 70.4687C36.0938 70.3906 35.8594 70.2734 35.625 70.1562C35.3906 70.0391 35.1563 69.9219 34.9219 69.7656C34.6875 69.6094 34.4922 69.4531 34.2969 69.2578C34.1016 69.0625 33.9063 68.8672 33.75 68.6719C33.5938 68.4766 33.4375 68.2422 33.2812 68.0078C33.1641 67.7734 33.0469 67.5391 32.9297 67.2656L26.7188 51.25C26.6016 50.8984 26.3672 50.5859 26.0938 50.3125C25.8203 50.0391 25.5078 49.8437 25.1563 49.7266L8.98437 43.5547C8.75 43.4766 8.47656 43.3594 8.24219 43.2031C8.00781 43.0859 7.77344 42.9297 7.57812 42.7344C7.38281 42.5781 7.14844 42.3828 6.99219 42.1875C6.79687 41.9922 6.64063 41.7969 6.48438 41.5625C6.32812 41.3281 6.21094 41.0937 6.09375 40.8594C5.97656 40.625 5.85937 40.3516 5.78125 40.1172C5.70312 39.8437 5.625 39.6094 5.58594 39.3359C5.54687 39.0625 5.50781 38.7891 5.50781 38.5156C5.50781 38.2422 5.54687 37.9687 5.58594 37.6953C5.625 37.4219 5.70312 37.1484 5.78125 36.9141C5.85937 36.6406 5.97656 36.4062 6.09375 36.1719C6.21094 35.9375 6.36719 35.7031 6.48438 35.4687C6.64063 35.2344 6.79687 35.0391 6.99219 34.8437C7.1875 34.6484 7.38281 34.4531 7.57812 34.2969C7.77344 34.1406 8.00781 33.9844 8.24219 33.8281C8.47656 33.7109 8.71094 33.5937 8.98437 33.4766L25.1563 27.3047C25.5078 27.1875 25.8203 26.9531 26.0938 26.6797C26.3672 26.4062 26.5625 26.0937 26.7188 25.7422L32.8906 9.84375C33.0469 9.375 33.2813 8.94531 33.5938 8.51562C33.9063 8.125 34.2188 7.73438 34.6094 7.42188C35 7.10938 35.4297 6.875 35.8984 6.64063C36.3672 6.44531 36.8359 6.32813 37.3438 6.25C37.6563 6.21094 37.9297 6.21094 38.2422 6.21094C38.5547 6.21094 38.8281 6.25 39.1406 6.32813C39.4531 6.40625 39.7266 6.48437 40 6.60156C40.2734 6.71875 40.5469 6.83594 40.8203 6.99219C41.0938 7.14844 41.3281 7.30469 41.5625 7.5C41.7969 7.69531 41.9922 7.89062 42.1875 8.125C42.3828 8.35937 42.5391 8.59375 42.6953 8.86719C42.8516 9.14063 42.9688 9.375 43.0859 9.64844L49.2969 25.6641C49.4531 26.0156 49.6484 26.3281 49.9219 26.6016C50.1953 26.875 50.5078 27.0703 50.8594 27.2266L67.0312 33.3984C67.2656 33.4766 67.5391 33.5937 67.7734 33.75C68.0078 33.8672 68.2422 34.0234 68.4375 34.2187C68.6328 34.375 68.8672 34.5703 69.0234 34.7656C69.2187 34.9609 69.375 35.1562 69.5312 35.3906C69.6875 35.625 69.8047 35.8594 69.9219 36.0937C70.0391 36.3281 70.1562 36.6016 70.2344 36.8359C70.3125 37.1094 70.3906 37.3437 70.4297 37.6172C70.4687 37.8906 70.5078 38.1641 70.5078 38.4375C70.5078 38.7109 70.4687 38.9844 70.4297 39.2578C70.3906 39.5312 70.3125 39.8047 70.2344 40.0391C70.1562 40.3125 70.0391 40.5469 69.9219 40.7812C69.8047 41.0156 69.6484 41.25 69.5312 41.4844C69.375 41.7187 69.2187 41.9141 69.0234 42.1094C68.8281 42.3047 68.6328 42.5 68.4375 42.6562C68.2422 42.8125 68.0078 42.9687 67.7734 43.125C67.5391 43.2422 67.3047 43.3594 67.0312 43.4766L50.8594 49.6484C50.5078 49.7656 50.1953 50 49.9219 50.2344C49.6484 50.5078 49.4531 50.8203 49.2969 51.1719L43.0859 67.1875C42.9688 67.4219 42.8906 67.6953 42.7344 67.9297C42.6172 68.1641 42.4609 68.3984 42.2656 68.5938C42.1094 68.7891 41.9141 68.9844 41.7188 69.1797C41.5234 69.375 41.3281 69.5312 41.0937 69.6875C40.8594 69.8437 40.625 69.9609 40.3906 70.0781C40.1563 70.1953 39.8828 70.3125 39.6484 70.3906C39.375 70.4687 39.1406 70.5469 38.8672 70.5859C38.5156 70.7031 38.2422 70.7422 37.9687 70.7422ZM82.2656 193.633C81.7969 193.633 81.3281 193.594 80.8984 193.555C80.4297 193.477 80 193.398 79.5312 193.242C79.1016 193.125 78.6719 192.93 78.2422 192.734C77.8125 192.539 77.4219 192.305 77.0312 192.031C76.6406 191.758 76.2891 191.484 75.9375 191.172C75.5859 190.859 75.2734 190.508 75 190.156C74.7266 189.805 74.4531 189.414 74.2187 189.023C73.9844 188.633 73.7891 188.203 73.6328 187.773L58.9453 149.883C58.7891 149.492 58.5937 149.141 58.3984 148.789C58.1641 148.437 57.9297 148.125 57.6172 147.852C57.3437 147.578 56.9922 147.305 56.6406 147.07C56.2891 146.836 55.9375 146.68 55.5469 146.523L17.3047 131.953C16.875 131.797 16.4453 131.602 16.0547 131.367C15.6641 131.133 15.2734 130.898 14.9219 130.586C14.5703 130.312 14.2187 130 13.9062 129.648C13.5937 129.297 13.2813 128.945 13.0469 128.594C12.7734 128.203 12.5391 127.812 12.3438 127.422C12.1484 126.992 11.9531 126.562 11.8359 126.133C11.6797 125.703 11.6016 125.234 11.5234 124.805C11.4453 124.336 11.4063 123.906 11.4063 123.437C11.4063 122.969 11.4453 122.539 11.5234 122.07C11.6016 121.602 11.6797 121.172 11.8359 120.742C11.9922 120.312 12.1484 119.883 12.3438 119.453C12.5391 119.023 12.7734 118.633 13.0469 118.281C13.3203 117.891 13.5937 117.539 13.9062 117.227C14.2187 116.875 14.5703 116.562 14.9219 116.289C15.2734 116.016 15.6641 115.742 16.0547 115.508C16.4453 115.273 16.875 115.078 17.3047 114.922L55.5469 100.352C55.9375 100.195 56.2891 100 56.6406 99.8047C56.9922 99.5703 57.3047 99.3359 57.6172 99.0234C57.8906 98.75 58.1641 98.3984 58.3984 98.0859C58.6328 97.7344 58.8281 97.3828 58.9453 96.9922L73.6719 59.1016C73.8281 58.6719 74.0234 58.2422 74.2578 57.8516C74.4922 57.4609 74.7266 57.0703 75.0391 56.7187C75.3125 56.3672 75.625 56.0156 75.9766 55.7031C76.3281 55.3906 76.6797 55.1172 77.0703 54.8437C77.4609 54.5703 77.8516 54.3359 78.2812 54.1406C78.7109 53.9453 79.1406 53.7891 79.5703 53.6328C80 53.5156 80.4687 53.3984 80.9375 53.3203C81.4062 53.2422 81.875 53.2031 82.3047 53.2031C82.7734 53.2031 83.2422 53.2422 83.6719 53.3203C84.1406 53.3984 84.5703 53.4766 85.0391 53.6328C85.4687 53.75 85.8984 53.9453 86.3281 54.1406C86.7578 54.3359 87.1484 54.5703 87.5391 54.8437C87.9297 55.1172 88.2812 55.3906 88.6328 55.7031C88.9844 56.0156 89.2969 56.3672 89.5703 56.7187C89.8437 57.0703 90.1172 57.4609 90.3516 57.8516C90.5859 58.2422 90.7812 58.6719 90.9375 59.1016L105.625 96.9922C105.781 97.3828 105.977 97.7344 106.172 98.0859C106.406 98.4375 106.641 98.75 106.953 99.0234C107.227 99.2969 107.578 99.5703 107.93 99.8047C108.281 100.039 108.633 100.195 109.023 100.352L147.031 114.844C147.5 115 147.93 115.195 148.32 115.43C148.75 115.664 149.141 115.937 149.531 116.211C149.922 116.484 150.273 116.836 150.586 117.187C150.898 117.539 151.211 117.891 151.484 118.281C151.758 118.672 151.992 119.102 152.227 119.531C152.422 119.961 152.617 120.391 152.734 120.859C152.891 121.328 152.969 121.797 153.047 122.266C153.125 122.734 153.164 123.203 153.164 123.672C153.164 124.141 153.125 124.57 153.047 125C152.969 125.43 152.852 125.898 152.734 126.328C152.578 126.758 152.422 127.187 152.227 127.578C152.031 127.969 151.797 128.359 151.523 128.75C151.25 129.102 150.977 129.453 150.664 129.805C150.352 130.117 150 130.43 149.648 130.703C149.297 130.977 148.906 131.211 148.516 131.445C148.125 131.68 147.695 131.875 147.266 132.031L109.023 146.602C108.633 146.758 108.281 146.953 107.93 147.148C107.578 147.383 107.266 147.617 106.953 147.93C106.641 148.242 106.406 148.555 106.172 148.867C105.937 149.18 105.742 149.57 105.625 149.961L90.8984 187.852C90.7422 188.281 90.5469 188.711 90.3125 189.102C90.0781 189.492 89.8437 189.883 89.5312 190.234C89.2578 190.586 88.9453 190.937 88.5937 191.25C88.2422 191.562 87.8906 191.836 87.5 192.109C87.1094 192.383 86.7187 192.617 86.2891 192.812C85.8594 193.008 85.4297 193.164 85 193.32C84.5703 193.437 84.1016 193.555 83.6328 193.633C83.2031 193.594 82.7344 193.633 82.2656 193.633Z" fill="#F9C769"/>
</svg>
