<?xml version="1.0" standalone="no"?>
<!DOCTYPE svg PUBLIC "-//W3C//DTD SVG 20010904//EN"
 "http://www.w3.org/TR/2001/REC-SVG-20010904/DTD/svg10.dtd">
<svg version="1.0" xmlns="http://www.w3.org/2000/svg"
 width="300.000000pt" height="300.000000pt" viewBox="0 0 300.000000 300.000000"
 preserveAspectRatio="xMidYMid meet">
<metadata>
Created by potrace 1.10, written by Peter Selinger 2001-2011
</metadata>
<g transform="translate(0.000000,300.000000) scale(0.100000,-0.100000)"
fill="#000000" stroke="none">
<path d="M952 2704 c-11 -12 -10 -18 1 -35 14 -19 15 -19 32 -2 11 11 14 18 6
21 -6 2 -9 7 -6 12 9 14 -20 18 -33 4z"/>
<path d="M730 2560 c-20 -20 -26 -40 -12 -40 4 0 13 9 20 20 7 11 22 20 34 20
20 0 20 -1 4 -19 -10 -11 -15 -25 -11 -30 10 -17 43 -13 54 7 9 16 10 16 16 0
8 -21 25 -24 25 -4 0 14 -78 66 -99 66 -6 0 -20 -9 -31 -20z"/>
<path d="M1825 2496 c-14 -14 -25 -32 -25 -40 0 -8 -3 -21 -6 -30 -5 -13 0
-15 27 -10 57 11 80 54 28 54 -26 0 -24 15 3 27 15 6 18 12 10 17 -7 4 -23 -4
-37 -18z"/>
<path d="M2275 2407 c-19 -47 -39 -127 -32 -133 3 -3 13 21 23 53 10 32 22 63
27 68 6 6 7 3 3 -10 -15 -50 -23 -116 -15 -121 15 -9 28 5 59 64 34 66 40 54
9 -19 -12 -27 -19 -52 -16 -55 3 -3 26 13 51 36 25 24 46 40 46 38 0 -3 -16
-25 -35 -49 -46 -58 -46 -72 3 -64 34 6 32 4 -28 -29 -71 -39 -104 -73 -121
-123 -6 -18 -13 -33 -15 -33 -5 0 -66 30 -72 35 -1 1 9 24 23 50 31 59 31 67
0 133 -27 58 -21 68 14 21 13 -17 25 -28 28 -25 8 8 -35 73 -54 80 -31 12 -33
-10 -8 -77 24 -64 24 -69 9 -107 -9 -22 -20 -37 -25 -34 -5 3 -19 2 -30 -1
-21 -7 -21 -7 3 -32 30 -32 93 -69 152 -89 44 -15 49 -15 64 0 16 16 15 19
-14 45 -17 16 -37 30 -45 33 -23 8 25 62 83 92 57 31 98 64 98 79 0 5 -16 7
-35 5 -19 -2 -35 -2 -35 2 0 3 14 23 30 44 51 68 29 108 -24 45 -14 -17 -26
-29 -26 -27 0 2 7 25 15 52 15 49 9 76 -14 61 -6 -3 -25 -34 -42 -67 -17 -33
-32 -58 -34 -56 -2 2 3 31 11 66 8 35 12 67 9 72 -11 19 -26 10 -40 -23z"/>
<path d="M490 2311 c0 -11 10 -37 22 -58 l22 -38 -52 48 c-50 46 -71 54 -79
31 -2 -6 12 -28 32 -51 19 -23 35 -44 35 -47 0 -3 -21 10 -46 29 -48 37 -59
41 -69 25 -9 -15 7 -37 59 -80 l48 -40 -40 0 c-82 0 -56 -34 55 -73 40 -15 81
-32 91 -38 19 -12 18 -14 -16 -46 -33 -31 -34 -35 -19 -50 15 -15 20 -15 63 2
54 20 195 114 202 133 5 15 -34 16 -78 0 -29 -9 -35 -9 -47 7 -19 27 -16 80 8
126 35 70 -3 97 -52 38 l-26 -32 -28 49 c-35 61 -54 84 -72 84 -7 0 -13 -9
-13 -19z m70 -82 c17 -32 34 -59 40 -59 5 0 21 16 36 35 36 48 47 44 24 -7
-29 -65 -26 -116 10 -160 29 -36 30 -37 11 -47 -31 -17 -43 -13 -81 23 -23 22
-63 43 -117 61 -46 16 -83 31 -83 34 0 4 17 5 39 3 21 -2 42 1 45 6 3 6 -16
30 -44 54 -61 52 -67 74 -7 26 55 -45 65 -50 77 -43 7 4 -2 23 -23 48 -53 66
-54 75 -4 30 69 -64 84 -56 47 25 -29 63 -4 40 30 -29z"/>
<path d="M1350 2091 c-43 -13 -84 -38 -112 -68 -65 -69 -87 -186 -47 -252 25
-41 37 -35 15 8 -9 16 -16 43 -15 58 1 28 1 28 9 -4 4 -18 14 -43 22 -55 13
-19 14 -33 5 -73 -20 -101 24 -217 98 -252 19 -9 35 -22 35 -29 0 -19 41 -44
72 -44 27 0 148 75 155 97 3 7 -13 3 -38 -8 -23 -12 -65 -23 -93 -26 -43 -4
-60 0 -106 24 -72 38 -104 96 -103 188 1 78 44 180 91 214 37 26 105 51 139
51 41 0 98 -66 118 -135 23 -80 40 -105 71 -105 22 0 25 -4 22 -27 -2 -20 -13
-33 -40 -48 -45 -24 -48 -46 -12 -74 33 -26 69 -27 118 -2 l38 20 -18 -21
c-26 -29 -92 -57 -134 -58 -32 -1 -33 -2 -13 -12 52 -25 144 23 208 109 40 55
104 173 135 253 48 119 99 264 94 269 -10 10 -24 -19 -74 -153 -28 -77 -62
-162 -74 -190 l-23 -51 5 72 c6 91 -10 150 -54 201 -69 81 -182 97 -231 33
-11 -14 -12 -14 -13 0 0 22 -48 65 -92 83 -39 17 -115 20 -158 7z m148 -47
c20 -8 52 -29 70 -47 31 -30 34 -31 65 -17 50 22 117 19 154 -8 72 -51 108
-221 66 -310 -28 -59 -73 -99 -121 -107 -51 -8 -72 4 -47 28 50 51 49 99 -5
130 -21 13 -34 34 -50 82 -35 106 -89 155 -170 155 -56 0 -144 -45 -182 -92
-16 -21 -33 -38 -38 -38 -5 0 -14 16 -20 35 -22 65 23 143 104 181 59 28 121
31 174 8z"/>
<path d="M842 2013 c10 -37 172 -293 253 -400 77 -102 143 -159 162 -139 4 5
2 11 -6 14 -55 19 -177 176 -316 404 -75 126 -104 162 -93 121z"/>
<path d="M2110 1966 c0 -6 134 -84 152 -88 37 -7 9 17 -61 54 -70 35 -91 44
-91 34z"/>
<path d="M2291 1870 c-64 -142 -156 -305 -268 -474 -61 -94 -110 -172 -108
-175 10 -9 37 26 128 162 142 213 293 502 285 545 -2 9 -18 -17 -37 -58z"/>
<path d="M770 1899 c-14 -11 -51 -33 -83 -50 -32 -16 -55 -34 -52 -40 8 -12
115 44 146 77 29 30 21 39 -11 13z"/>
<path d="M624 1895 c-4 -9 -2 -21 4 -27 15 -15 44 -1 40 19 -4 23 -36 29 -44
8z"/>
<path d="M550 1863 c26 -55 116 -166 298 -371 282 -316 313 -367 352 -586 20
-111 40 -160 40 -98 0 48 -36 221 -57 277 -37 96 -131 222 -328 435 -48 52
-128 145 -176 205 -49 61 -103 126 -120 145 l-30 35 21 -42z"/>
<path d="M2639 1864 c-18 -22 13 -53 35 -35 8 7 12 19 10 26 -8 21 -31 25 -45
9z"/>
<path d="M1360 1835 c-13 -15 -12 -16 29 -27 10 -3 6 -13 -14 -36 -32 -39 -50
-42 -41 -7 4 14 2 25 -3 25 -16 0 -24 -40 -11 -55 9 -10 9 -19 0 -36 -10 -17
-9 -24 4 -37 12 -13 18 -13 28 -4 9 9 9 12 0 12 -23 0 -12 29 29 76 43 50 46
69 13 91 -18 12 -23 11 -34 -2z"/>
<path d="M1466 1811 c-8 -12 13 -27 47 -35 20 -5 27 -3 27 8 0 26 -61 48 -74
27z"/>
<path d="M1405 1723 c-5 -20 -2 -31 11 -40 24 -18 38 -16 65 6 31 25 19 38
-15 16 -31 -21 -48 -12 -40 21 3 13 2 24 -4 24 -5 0 -13 -12 -17 -27z"/>
<path d="M351 1644 c-1 -7 -10 -14 -21 -17 -21 -5 -28 -27 -9 -27 5 0 8 -4 5
-9 -9 -14 22 -21 46 -11 13 5 19 9 13 10 -5 0 -3 5 5 10 10 6 11 10 3 10 -7 0
-13 7 -13 16 0 8 -4 13 -9 10 -5 -4 -12 0 -14 6 -4 8 -6 9 -6 2z"/>
<path d="M1426 1584 c-4 -10 -13 -13 -27 -9 -15 5 -20 3 -17 -6 7 -22 49 -16
66 9 13 20 13 22 -1 22 -8 0 -18 -7 -21 -16z"/>
<path d="M2457 1577 c-3 -9 -4 -31 0 -47 5 -25 9 -29 27 -24 32 9 48 28 40 48
-5 12 -14 16 -30 13 -16 -3 -24 1 -26 12 -3 14 -5 14 -11 -2z"/>
<path d="M1370 1320 c0 -23 25 -27 33 -6 7 16 -1 26 -20 26 -7 0 -13 -9 -13
-20z"/>
<path d="M1353 1254 c-8 -21 13 -42 28 -27 13 13 5 43 -11 43 -6 0 -13 -7 -17
-16z"/>
<path d="M1866 1164 c-151 -19 -352 -61 -402 -84 -64 -28 -69 -44 -68 -210 0
-80 4 -172 8 -205 l7 -61 -51 -15 c-32 -10 -49 -12 -47 -5 2 6 21 16 43 23
l39 11 -41 1 c-91 2 -92 -39 -2 -110 60 -47 35 -48 323 13 195 41 379 95 418
123 21 15 22 16 2 21 -19 5 -20 13 -20 222 0 182 -3 223 -17 255 -20 43 -19
43 -192 21z m173 -36 c28 -76 19 -441 -12 -476 -10 -11 -57 -31 -105 -45 -83
-26 -445 -107 -475 -107 -11 0 -15 32 -20 167 -9 209 -9 337 -1 358 4 8 19 22
35 30 64 34 381 92 507 94 56 1 63 -1 71 -21z"/>
<path d="M2007 1080 c10 -50 6 -341 -6 -372 -7 -20 -23 -30 -63 -43 -29 -9
-62 -20 -73 -25 -11 -4 -29 -11 -39 -14 -10 -4 -17 -9 -14 -11 10 -11 171 44
192 64 20 21 21 31 21 209 0 136 -4 192 -13 207 -11 18 -12 16 -5 -15z"/>
<path d="M1772 898 c-28 -28 -2 -72 39 -66 25 3 48 33 35 45 -4 4 -12 0 -17
-9 -5 -10 -16 -15 -24 -12 -20 8 -19 34 0 34 8 0 15 5 15 10 0 14 -33 13 -48
-2z"/>
<path d="M2341 779 c-112 -10 -208 -22 -214 -28 -14 -14 -11 -14 218 4 209 17
253 23 261 36 7 11 -14 10 -265 -12z"/>
<path d="M627 734 c-16 -16 10 -24 80 -24 l76 0 -6 -86 c-9 -133 -55 -187
-113 -133 -26 24 -37 54 -55 147 -11 59 -13 62 -40 62 -34 0 -52 -28 -43 -65
6 -23 3 -25 -27 -25 -62 0 -139 -13 -139 -22 0 -6 33 -7 83 -3 99 8 132 -4
172 -63 22 -32 23 -38 10 -48 -23 -17 -7 -24 55 -24 65 0 83 13 106 77 13 39
19 169 8 197 -5 13 -22 16 -83 16 -43 0 -81 -3 -84 -6z m-49 -71 c18 -35 24
-75 11 -71 -22 7 -50 53 -43 71 8 22 21 22 32 0z"/>
<path d="M1308 695 c-2 -2 -98 -11 -213 -20 -189 -15 -266 -27 -253 -40 7 -7
482 36 491 44 5 5 2 11 -6 14 -8 3 -17 4 -19 2z"/>
<path d="M2428 534 c-3 -3 -59 -27 -123 -54 -113 -47 -195 -94 -195 -111 0 -4
33 9 73 31 39 21 102 50 138 63 l67 25 66 -24 c68 -24 106 -30 106 -16 0 4
-37 15 -82 26 -81 18 -82 18 -55 32 15 8 27 19 27 24 0 11 -13 13 -22 4z"/>
<path d="M2474 521 c3 -5 38 -17 78 -26 40 -10 77 -21 81 -25 8 -7 -191 -132
-254 -160 -22 -10 -40 -8 -108 14 -80 25 -185 36 -166 17 6 -6 44 -17 85 -26
41 -8 95 -21 120 -29 42 -12 49 -12 100 11 72 32 230 126 230 137 0 5 8 15 18
22 26 19 8 30 -87 53 -94 24 -105 25 -97 12z"/>
<path d="M2266 391 c8 -7 91 -31 108 -31 3 0 6 4 6 8 0 5 -23 14 -51 20 -61
14 -76 15 -63 3z"/>
<path d="M2200 372 c0 -4 24 -14 53 -20 28 -7 63 -15 77 -19 48 -11 7 15 -49
31 -61 18 -81 20 -81 8z"/>
</g>
</svg>
