<svg width="58" height="58" viewBox="0 0 58 58" fill="none" xmlns="http://www.w3.org/2000/svg">
<rect x="0.5" y="0.5" width="57" height="57" rx="9.5" fill="#F5F5F5" stroke="#DADADA"/>
<circle cx="45" cy="30" r="5" transform="rotate(-180 45 30)" fill="#B5B4FF"/>
<circle cx="5" cy="5" r="5" transform="matrix(1 -3.39767e-08 -3.39767e-08 -1 16 49)" fill="#B5B4FF"/>
<circle cx="5" cy="5" r="5" transform="matrix(1 -3.39767e-08 -3.39767e-08 -1 9 35)" fill="#B5B4FF"/>
<circle cx="5" cy="5" r="5" transform="matrix(1 -3.39767e-08 -3.39767e-08 -1 16 20)" fill="#B5B4FF"/>
<circle cx="29" cy="29" r="5" transform="rotate(-180 29 29)" fill="#0000FE"/>
<circle cx="38" cy="44" r="5" transform="rotate(-180 38 44)" fill="#B5B4FF"/>
<circle cx="38" cy="15" r="5" transform="rotate(-180 38 15)" fill="#B5B4FF"/>
</svg>
